<svg width="200" height="186" viewBox="0 0 200 186" fill="none" xmlns="http://www.w3.org/2000/svg">
<path d="M0 93V93C0 144.362 41.6375 186 93 186H100H107C158.362 186 200 144.362 200 93V93V93C200 41.6375 158.362 5.8338e-06 107 5.8338e-06H100H93C41.6375 5.8338e-06 0 41.6375 0 93V93ZM110.537 9.60357C132.644 16.7786 149.344 39.4077 154.831 69.5982C157.614 84.8315 157.097 102.383 153.439 116.843C146.441 144.495 130.298 164.199 109.423 170.712C103.777 172.423 91.8489 172.423 86.004 170.656C81.6302 169.332 75.7853 166.627 73.5586 164.916C72.008 163.757 72.2863 163.868 77.2962 166.517C84.5726 170.436 93.5984 172.147 101.272 171.098C121.829 168.283 139.125 151.891 148.111 126.668C151.014 118.499 152.247 113.697 153.519 105.418C154.712 97.7466 154.791 82.9549 153.718 75.3383C151.65 60.7122 146.879 47.0243 140.437 36.924C132.087 23.8433 122.823 16.1715 110.139 11.7009C106.322 10.3763 105.288 10.2107 98.0119 10.2107C89.3042 10.2107 86.4414 10.7626 79.7217 13.8534C62.1471 21.9116 48.3499 41.3947 42.5845 66.2315C40.3976 75.7798 39.9602 79.8089 39.9602 91.3442C39.9602 100.285 40.0795 102.659 40.8748 107.571C42.3857 116.954 45.2087 126.668 48.7475 134.891L48.9565 135.367C49.0268 135.527 48.8004 135.647 48.7078 135.499V135.499C47.3161 133.236 43.1809 121.535 41.9881 116.457C39.8012 107.295 39.2048 101.5 39.2048 90.2404C39.2048 81.4095 39.3638 78.8154 40.1193 73.9585C42.7435 56.9591 47.833 43.9335 56.4215 32.0119C65.0099 20.1454 74.7515 12.6944 86.1233 9.43799C91.6501 7.83739 92.0477 7.7822 99.6024 8.00297C105.05 8.16855 107.197 8.49971 110.537 9.60357ZM80.4374 68.5496C81.0338 69.2119 81.0338 69.543 80.159 72.8546C79.6421 74.8415 79.0855 77.0493 78.9264 77.822V77.822C78.8616 78.1033 79.2352 78.2648 79.3957 78.0248L79.6421 77.6564C80.7555 76.0558 81.4712 75.7798 82.2266 76.8285C82.9026 77.7668 82.8231 79.6433 81.9483 84.1691C81.5507 86.2665 81.2724 88.143 81.3519 88.2534C81.9085 89.0813 82.9026 85.7697 84.5726 77.546C86.2028 69.6534 86.6402 68.1632 87.2763 67.9976C87.7137 67.9424 88.3897 68.1632 88.7873 68.5496C89.4632 69.2671 89.4632 69.4326 88.5487 72.3027C88.0318 73.9585 87.4354 75.9454 87.2763 76.7181C86.998 78.0427 86.998 78.0427 87.7535 77.1045C88.827 75.835 89.3439 75.8902 90.0994 77.546C91.0537 79.5881 90.6958 83.838 89.2644 86.3769C87.1571 90.2404 84.0159 91.7306 83.0616 89.3573V89.3573C82.872 88.8548 82.2026 88.7592 81.8799 89.1885L81.67 89.4677C79.0457 92.8896 78.3698 86.3769 80.5567 79.0362C80.6759 78.705 80.5964 78.3739 80.3976 78.3739C79.7217 78.3739 78.4095 81.7958 77.2962 86.5424C76.6998 89.0261 76.1034 91.0683 75.9443 91.0683C75.1491 91.0683 74.3539 89.4677 74.3141 87.7567C74.2744 86.2665 76.7396 73.9033 78.1312 68.5496C78.2107 68.2184 78.6481 67.8872 79.0457 67.8872C79.4433 67.8872 80.0795 68.2184 80.4374 68.5496ZM104.93 68.7703C105.089 68.9911 104.533 71.5852 102.664 78.8154C102.584 79.2018 103.022 78.7602 103.698 77.822C104.374 76.9389 105.249 76.1662 105.646 76.1662C107.992 76.1662 107.913 80.8576 105.487 83.6172C104.612 84.6659 104.573 84.8867 105.01 86.2665C105.805 88.695 106.72 87.6463 107.157 83.838C107.435 81.3543 109.384 77.4908 110.815 76.5525C111.69 76.0006 111.928 76.111 112.525 77.1596C112.922 77.822 113.519 78.3739 113.877 78.3739C114.911 78.3739 114.99 79.4226 114.195 82.6789C113.121 87.0392 112.843 88.8605 113.241 88.8605C113.757 88.8605 116.342 83.1757 116.899 80.8024C117.336 79.0362 117.296 78.705 116.501 77.546L116.349 77.315C115.951 76.7097 116.031 75.9082 116.541 75.3935V75.3935C117.058 74.8967 117.813 74.5104 118.211 74.5104C118.847 74.5104 118.926 74.7864 118.767 76.0558C118.569 77.4356 118.688 77.7116 119.96 78.3187C121.511 79.1466 121.511 78.981 120.318 85.7145C119.761 88.9157 119.761 88.9709 120.517 87.9775C120.915 87.4807 121.272 87.3151 121.272 87.6463C121.272 88.3086 119.006 91.0683 118.449 91.0683C118.25 91.0683 117.853 90.4059 117.614 89.6332C117.217 88.419 117.256 87.4255 117.972 83.838C118.887 78.8706 118.569 77.6012 117.416 81.5751C116.581 84.3899 114.036 89.3573 113.042 90.13C112.127 90.9027 111.332 90.13 111.332 88.4742V88.4742C111.332 88.1166 110.844 88.0119 110.698 88.3379L110.537 88.695C109.622 90.8475 108.509 91.0131 107.475 89.1917V89.1917C107.132 88.5909 106.274 88.5708 105.903 89.155L105.845 89.2469C104.652 91.0683 103.738 90.6819 102.783 87.8671C102.346 86.5976 101.909 85.549 101.75 85.549C101.63 85.549 101.272 86.6528 100.994 88.0326C100.398 90.9579 99.9602 91.5098 99.0855 90.3507C98.0119 88.8605 98.4493 85.7697 102.068 68.7703C102.227 67.9976 102.505 67.8321 103.499 68.108C104.175 68.2736 104.811 68.6048 104.93 68.7703ZM131.61 68.4392C132.326 68.9911 132.286 69.1567 131.213 73.3513C129.543 79.6985 127.913 87.7567 128.231 88.1982C128.628 88.7502 129.344 86.7632 130.258 82.5134C130.974 79.0914 131.213 78.6499 132.127 78.4843C133.638 78.2083 133.797 79.3122 132.843 83.6172C132.366 85.6594 132.008 87.5911 132.008 87.8671C132.008 88.7502 133.201 87.1496 133.837 85.3834V85.3834C134.241 84.3854 134.732 84.6104 134.365 85.6226C133.988 86.6593 133.329 87.9881 132.644 88.9709C131.412 90.9027 130.537 90.9027 129.94 89.1365V89.1365C129.765 88.582 129.025 88.4783 128.703 88.9632L128.588 89.1365C128.072 89.9092 127.396 90.5163 127.117 90.5163C126.402 90.5163 126.004 89.1917 126.282 87.8671C126.402 87.3703 126.163 87.6463 125.765 88.4742C123.817 92.6137 120.875 89.6884 121.71 84.3899C122.425 79.9193 125.408 75.5039 127.078 76.3869C127.435 76.6077 127.833 75.6142 128.429 72.9098C128.867 70.8677 129.225 68.8807 129.225 68.4944C129.225 67.7217 130.616 67.7217 131.61 68.4392ZM96.1431 74.0688C97.3757 75.7798 95.5467 77.9875 93.8767 76.7733C93.0815 76.1662 92.7634 74.5104 93.3201 73.7929C93.7575 73.1858 95.6262 73.3513 96.1431 74.0688ZM134.553 73.7377C135.507 74.2344 135.348 76.5525 134.394 76.9941C133.559 77.3804 131.61 76.0558 131.61 75.1727C131.61 73.7929 133.201 73.0202 134.553 73.7377ZM63.5388 76.5525C63.4195 78.0427 63.5785 79.0914 64.0954 80.0849C64.5328 80.8576 65.0895 82.4582 65.3678 83.6172V83.6172C65.4996 84.1519 66.2605 84.1496 66.3891 83.6142L66.5606 82.8997C66.998 81.0783 67.7932 79.4226 68.827 78.1531C70.5765 75.8902 71.3718 75.6694 71.9682 77.27C72.2068 77.8772 72.7237 78.3739 73.161 78.3739C74.3539 78.3739 74.3936 79.0362 73.3598 83.1205C72.8032 85.2178 72.3658 87.4255 72.3658 87.9775C72.3658 88.9709 72.4056 88.9709 73.161 88.0326C74.2346 86.708 74.1948 87.6463 73.0815 89.2469C72.008 90.8475 71.332 90.8475 70.7356 89.3021V89.3021C70.5526 88.8365 69.9038 88.8098 69.6833 89.2588L69.662 89.3021C68.7475 91.2338 67.2763 90.9027 66.5606 88.5846C66.2425 87.5359 65.9245 86.6528 65.8449 86.6528C65.7654 86.6528 64.9702 87.6463 64.0954 88.8605C62.4254 91.1786 60.6362 91.841 60.159 90.1852C59.9205 89.2469 61.4712 86.6528 62.3062 86.6528C62.9026 86.6528 63.0219 83.5068 62.4652 82.2926C62.2266 81.7407 61.9085 82.127 61.1928 83.838C60 86.8184 59.8012 86.3769 60.8748 83.0653C61.67 80.5816 61.67 79.8089 61.0338 76.8837C60.7952 75.8902 60.9543 75.5039 61.67 75.1175C63.4592 74.124 63.7376 74.3448 63.5388 76.5525ZM93.4791 78.3739C94.4698 78.3739 94.8837 79.3705 94.7248 80.3483C94.6144 81.0278 94.4425 81.8685 94.2346 82.7341C92.9225 88.2534 93.3598 90.0196 95.0298 85.6594C95.4274 84.5003 95.7853 84.0036 95.825 84.5555C95.825 85.8249 93.3598 90.1852 92.4851 90.4059C90.9344 90.8475 90.6163 87.2048 91.7296 81.6855C92.326 78.6499 92.4851 78.3739 93.4791 78.3739V78.3739ZM76.7396 98.6297V98.6297C76.7396 99.279 77.568 99.5521 77.9542 99.0302L78.2505 98.6297C79.4433 97.0291 80.0795 96.5875 81.2326 96.5875C82.0278 96.5875 82.7038 96.8083 82.7038 97.0291C82.7038 97.2499 81.9881 98.4641 81.1133 99.6231C80.2386 100.782 79.5229 102.107 79.5229 102.493C79.5229 102.88 80.3181 104.977 81.3121 107.185C82.3062 109.392 83.1014 111.379 83.1014 111.6C83.1014 111.876 82.4254 112.042 81.5905 112.042C80.159 112.042 80 111.876 78.6879 108.73C77.9722 106.909 77.2167 105.418 77.0577 105.418C76.8986 105.418 76.7396 106.853 76.66 108.564C76.5408 111.71 76.5408 111.766 75.2684 111.931V111.931C74.5719 112.019 73.9563 111.476 73.9563 110.774V104.37V97.9792C73.9563 97.2106 74.5793 96.5875 75.3479 96.5875V96.5875C76.6998 96.5875 76.7396 96.6427 76.7396 98.6297ZM93.2406 103.597C94.2744 107.516 95.2286 110.993 95.3479 111.324C95.4672 111.821 95.0696 112.042 94.0755 112.042C92.9225 112.042 92.5249 111.766 92.167 110.662C91.7694 109.447 91.4513 109.282 89.8211 109.282C88.1113 109.282 87.8728 109.447 87.6342 110.662C87.4354 111.821 87.1571 112.042 86.0437 112.042C85.1292 112.042 84.6918 111.766 84.6918 111.269C84.6918 110.551 88.0318 98.1329 88.5089 97.0291C88.6282 96.8083 89.3042 96.5875 90.0199 96.5875V96.5875C90.7945 96.5875 91.4732 97.1062 91.6767 97.8536L93.2406 103.597ZM103.777 97.4154C105.845 98.9056 106.282 103.928 104.493 105.694C103.698 106.467 103.698 106.467 104.533 108.344C105.765 111.158 105.646 112.042 103.976 112.042C102.744 112.042 102.545 111.821 101.829 109.558C100.795 106.357 99.8807 106.246 99.7217 109.392C99.6024 111.6 99.5229 111.766 98.33 111.931V111.931C97.6336 112.019 97.0179 111.476 97.0179 110.774V104.37V99.3708C97.0179 97.8337 98.264 96.5875 99.8012 96.5875V96.5875C101.511 96.5875 103.062 96.9187 103.777 97.4154ZM113.917 97.3602C115.706 98.4089 116.899 101.169 116.899 104.315C116.899 109.392 114.553 112.042 109.98 112.042V112.042C108.531 112.042 107.356 110.867 107.356 109.417V104.315V99.172C107.356 97.7447 108.513 96.5875 109.94 96.5875V96.5875C111.372 96.5875 113.161 96.9187 113.917 97.3602ZM121.471 104.315V110.374C121.471 111.143 120.848 111.766 120.08 111.766V111.766V111.766C119.307 111.766 118.677 111.147 118.664 110.374L118.569 104.922C118.529 101.113 118.569 97.6914 118.688 97.2499C118.807 96.8083 119.364 96.5875 120.159 96.6979V96.6979C120.909 96.7925 121.471 97.4303 121.471 98.186V104.315ZM54.1948 144.716C56.2227 148.027 58.9662 151.56 63.2207 156.361C64.334 157.631 64.2147 157.576 62.6243 156.085C60.0795 153.712 52.6839 143.446 50.9742 139.914C49.9006 137.706 49.8608 137.541 50.7753 139.086C51.3718 140.135 52.9225 142.674 54.1948 144.716ZM70.1789 162.433C70.8151 163.261 67.4751 160.832 66.6004 159.783C66.163 159.287 66.7197 159.563 67.7932 160.391C68.9066 161.218 69.9801 162.157 70.1789 162.433Z" fill="black"/>
<path d="M87.3161 79.5881C86.0835 82.1822 84.6919 89.4125 85.4076 89.4125C86.004 89.4125 86.6402 88.143 87.2763 85.4938C88.7078 79.9193 88.7078 76.6077 87.3161 79.5881Z" fill="black"/>
<path d="M110.497 80.416C109.543 83.5068 108.986 88.8605 109.662 88.8605C110.06 88.8605 111.809 82.1822 112.207 79.257C112.485 76.9941 111.292 77.822 110.497 80.416Z" fill="black"/>
<path d="M103.499 79.8641C102.585 81.7406 101.71 84.5003 101.909 84.8314C102.266 85.273 104.97 80.5264 104.97 79.4777C104.97 77.9323 104.374 78.0979 103.499 79.8641Z" fill="black"/>
<path d="M125.885 79.0914C124.453 82.127 123.459 88.8605 124.453 88.8605C124.732 88.8605 127.237 79.257 127.237 78.0979C127.237 77.3804 126.402 77.9875 125.885 79.0914Z" fill="black"/>
<path d="M70.497 78.4843C69.2246 80.692 68.1511 88.0878 68.9861 88.419C69.3837 88.5846 71.491 80.6368 71.5308 78.7602C71.5706 77.6564 71.0537 77.546 70.497 78.4843Z" fill="black"/>
<path d="M61.9086 87.5359C61.7495 87.7567 61.6302 88.3086 61.6302 88.8053C61.6302 89.4125 61.7495 89.4677 62.0676 89.0261C62.3062 88.695 62.4652 88.143 62.3459 87.7567C62.2664 87.4255 62.0676 87.3151 61.9086 87.5359Z" fill="black"/>
<path d="M89.3042 103.873C88.9066 106.081 89.0259 106.522 90.0994 106.522C90.9344 106.522 91.0934 106.357 90.8549 105.529C90.6958 105.032 90.4573 104.149 90.3777 103.597C90.0994 102.272 89.6223 102.438 89.3042 103.873Z" fill="black"/>
<path d="M99.8012 101.831C99.8012 103.597 99.9205 103.763 100.954 103.763C103.022 103.763 103.579 100.948 101.67 100.23C100.04 99.6231 99.8012 99.8439 99.8012 101.831Z" fill="black"/>
<path d="M110.139 103.983V106.826C110.139 107.573 110.744 108.178 111.491 108.178V108.178C115.03 108.178 114.99 101.169 111.451 100.175V100.175C110.796 99.9821 110.139 100.473 110.139 101.157V103.983Z" fill="black"/>
</svg>
